<?xml version="1.0" encoding="utf-8"?>
<!-- Generator: Adobe Illustrator 21.0.2, SVG Export Plug-In . SVG Version: 6.00 Build 0)  -->
<svg version="1.1" id="Layer_1" xmlns="http://www.w3.org/2000/svg" xmlns:xlink="http://www.w3.org/1999/xlink" x="0px" y="0px"
	 viewBox="0 0 512 512" style="enable-background:new 0 0 512 512;" xml:space="preserve">
<style type="text/css">
	.st0{fill:#1EC469;}
</style>
<g>
	<g>
		<path class="st0" d="M499.5,327.7h-5v-22.1c19.9-20.1,17.6-56,17.2-60.6v-37.6c0-12.1-9.8-21.9-21.9-21.9h-0.8
			c-3.8,0-7.4,1-10.6,2.7c-4-5.1-10.2-8.3-17.2-8.3h-0.8c-3.7,0-7.2,0.9-10.3,2.6c-4-4.8-10.1-7.8-16.8-7.8h-0.8
			c-3.1,0-6,0.6-8.7,1.8c-3.9-5.9-10.7-9.9-18.3-9.9h-0.8c-12.1,0-21.9,9.8-21.9,21.9v21.1c-8.8-0.9-15.7,0.7-20.9,5.1
			c-11.3,9.5-10.2,28.2-9.1,46.4c1.5,24.8,23.6,45.5,32.1,52.7v13.9h-4.2c-4.5,0-8.1,3.6-8.1,8.1v41.5v124.6c0,4.5,3.6,8.1,8.1,8.1
			h119c4.5,0,8.1-3.6,8.1-8.1V377.3v-41.5C507.6,331.3,504,327.7,499.5,327.7z M368.8,260.2c-0.8-12.8-1.7-28.8,3.3-33
			c1.9-1.6,5.5-2,10.5-1.2v11c0,4.5,3.6,8.1,8.1,8.1s8.1-3.6,8.1-8.1v-48.4c0-3.2,2.6-5.8,5.8-5.8h0.8c3.2,0,5.8,2.6,5.8,5.8v3.7
			v27.4c0,4.5,3.6,8.1,8.1,8.1s8.1-3.6,8.1-8.1v-25.8c1-1.9,2.9-3,5.1-3h0.8c3.2,0,5.8,2.6,5.8,5.8v1.1v22c0,4.5,3.6,8.1,8.1,8.1
			s8.1-3.6,8.1-8.1v-20.4c1-1.9,2.9-3.2,5.2-3.2h0.8c3.2,0,5.8,2.6,5.8,5.8v5.6v16.2c0,4.5,3.6,8.1,8.1,8.1c4.5,0,8.1-3.6,8.1-8.1
			v-16.2c0-3.2,2.6-5.8,5.8-5.8h0.8c3.2,0,5.8,2.6,5.8,5.8v37.9c0,0.3,0,0.5,0,0.8c0.9,9.7,0.2,37.4-14.4,49.8
			c-1.8,1.5-2.9,3.8-2.9,6.2v25.6h-77.5V310c0-2.6-1.2-5-3.3-6.5C397.3,303.3,370.1,282.7,368.8,260.2z M491.4,493.8H388.5V385.4
			h102.9V493.8z M491.4,369.3H388.5v-25.4h4.2h93.6h5V369.3z"/>
		<path class="st0" d="M343.1,133.4l37,15.6c2.7,1.1,5.5,1.7,8.3,1.7c2.7,0,5.4-0.5,8-1.6c5.3-2.1,9.4-6.2,11.6-11.4l4.5-10.6
			c2.2-5.2,2.3-11,0.1-16.3c-2.1-5.3-6.2-9.4-11.4-11.6l-43.9-18.4l2-7.3c0-0.1,0.1-0.2,0.1-0.3c1.4-5.7,0.4-11.6-2.7-16.6
			c-3.1-5-7.9-8.5-13.6-9.8l-0.8-0.2c-3.7-0.9-7.5-0.8-10.9,0.2c-2.7-5.8-8-10.4-14.8-12l-0.8-0.2c-3.6-0.9-7.2-0.8-10.6,0.1
			c-0.3-0.6-0.6-1.1-0.9-1.6c-3.1-5-7.9-8.5-13.6-9.8l-0.8-0.2c-3-0.7-6-0.8-8.9-0.3c-0.5-1.4-1.2-2.7-1.9-4
			c-3.1-5-7.9-8.5-13.6-9.8l-0.8-0.2c-5.7-1.4-11.6-0.4-16.6,2.7c-5,3.1-8.4,7.8-9.8,13.5l-1.4,5.3L179.8,6.1c0,0-0.1,0-0.1,0
			c-0.2-0.1-0.3-0.1-0.5-0.2c-0.1,0-0.2-0.1-0.3-0.1c-0.1,0-0.3-0.1-0.4-0.1c-0.1,0-0.3-0.1-0.4-0.1c-0.1,0-0.2,0-0.3-0.1
			c-0.2,0-0.3,0-0.5-0.1c0,0-0.1,0-0.1,0L123.1,2c-3.4-0.2-6.5,1.7-7.9,4.8c-1.4,3.1-0.7,6.7,1.7,9.1L155,53c0,0,0,0,0,0l0,0
			c0,0,0,0,0.1,0.1c0.2,0.2,0.3,0.3,0.5,0.4c0.1,0.1,0.2,0.1,0.3,0.2c0.1,0.1,0.2,0.1,0.3,0.2c0,0,0.1,0,0.1,0
			c0.1,0.1,0.3,0.2,0.4,0.3c1,0.7,2.1,1.3,3.2,1.7l34.6,14.6c-2.6,7.5-4.1,16.4-5.5,24.4c-4.4,25.3,13.7,51.6,19.7,59.6l0,36.7H202
			c-4.5,0-8.1,3.6-8.1,8.1v41.6v261c0,4.5,3.6,8.1,8.1,8.1H321c4.5,0,8.1-3.6,8.1-8.1V299.8c0-4.5-3.6-8.1-8.1-8.1s-8.1,3.6-8.1,8.1
			v194H210.1V249h102.9v13.5v9c0,4.5,3.6,8.1,8.1,8.1s8.1-3.6,8.1-8.1v-9v-21.5v-41.6c0-4.5-3.6-8.1-8.1-8.1h-3.4l0.1-20.9
			C331.4,161.3,339,145.7,343.1,133.4z M386,110.3l8.9,3.7c1.3,0.5,2.2,1.5,2.8,2.8c0.5,1.3,0.5,2.7,0,3.9l-4.5,10.6
			c-0.5,1.3-1.5,2.2-2.8,2.8c-1.3,0.5-2.7,0.5-3.9,0l-9.4-4L386,110.3z M347.4,116.3l5.5-19.9l18.2,7.6l-9.1,19.8l-14.8-6.3
			C347.3,117,347.4,116.6,347.4,116.3z M158.2,33.6l-14.4-14l20.4,1.3L158.2,33.6z M171.5,43.3l9.2-19.3l51.8,21.8l-5.6,21
			L171.5,43.3z M312.9,232.8H210.1v-25.4h102.9L312.9,232.8L312.9,232.8z M306,158.5c-2.7,1.4-4.4,4.1-4.4,7.2l-0.1,24.7h-76.6
			l0-38.7c0-1.9-0.7-3.7-1.9-5.2c-0.2-0.3-21.9-26.6-18.1-48.8c1.2-7,2.6-14.8,4.5-20.9L224,83c0.9,2.4,2.8,4.3,5.5,5
			c4.3,1.2,8.7-1.4,9.9-5.7l14.4-53.6c0-0.1,0-0.2,0.1-0.2c0.4-1.5,1.3-2.8,2.6-3.6c1.3-0.8,2.9-1.1,4.4-0.7l0.8,0.2
			c1.5,0.4,2.8,1.3,3.6,2.6c0.8,1.3,1.1,2.9,0.7,4.4l-0.8,3.5l-9.5,33c-1.2,4.3,1.2,8.8,5.5,10c0.7,0.2,1.5,0.3,2.2,0.3
			c3.5,0,6.7-2.3,7.8-5.8l9.2-31.9c1.4-1.7,3.6-2.4,5.7-1.9l0.8,0.2c1.5,0.4,2.8,1.3,3.6,2.6c0.8,1.3,1,2.8,0.7,4.3l-8.5,28.6
			c-1.3,4.3,1.2,8.8,5.5,10c0.8,0.2,1.5,0.3,2.3,0.3c3.5,0,6.7-2.3,7.7-5.8l7.8-26.5c1.4-1.9,3.7-2.8,6-2.2l0.8,0.2
			c3.1,0.7,5,3.9,4.3,7l-1.2,5.2L309,84.4c-1.3,4.3,1,8.8,5.3,10.1c0.8,0.3,1.6,0.4,2.4,0.4c3.4,0,6.6-2.2,7.7-5.7l7-22.2
			c0-0.1,0-0.2,0.1-0.3c0-0.1,0.1-0.2,0.1-0.3c0.7-3.1,3.9-5,7-4.3l0.8,0.2c3.1,0.7,5,3.8,4.3,6.9l-11.9,43.2
			c-0.1,0.3-0.2,0.7-0.2,1C331.5,113.8,326.4,148.2,306,158.5z"/>
		<path class="st0" d="M159.8,289.6v-37.6c0-12.1-9.8-21.9-21.9-21.9H137c-3.8,0-7.4,1-10.6,2.7c-4-5.1-10.2-8.3-17.2-8.3h-0.8
			c-3.7,0-7.2,0.9-10.3,2.6c-4-4.8-10.1-7.8-16.8-7.8h-0.8c-3.1,0-6,0.6-8.7,1.8c-3.9-5.9-10.7-9.9-18.3-9.9h-0.8
			c-12.1,0-21.9,9.8-21.9,21.9v21.1c-8.8-1-15.7,0.7-20.9,5.1c-11.3,9.5-10.2,28.2-9.1,46.4c1.5,24.8,23.6,45.5,32.1,52.7v13.9h-4.2
			c-4.5,0-8.1,3.6-8.1,8.1v41.6v80c0,4.5,3.6,8.1,8.1,8.1h119.1c4.5,0,8.1-3.6,8.1-8.1v-80v-41.6c0-4.5-3.6-8.1-8.1-8.1h-5v-22.1
			C162.4,330.1,160.1,294.2,159.8,289.6z M139.5,493.8H36.6V430h102.9V493.8z M139.5,413.8H36.6v-25.4h4.2h93.6h5V413.8z
			 M129.2,340.5c-1.8,1.5-2.9,3.8-2.9,6.2v25.6H48.9v0v-17.8c0-2.6-1.2-5-3.3-6.5c-7.6-5.7-27.7-24.5-28.8-43.3
			c-0.8-12.8-1.7-28.8,3.3-33c1.9-1.6,5.5-2,10.5-1.2v11c0,4.5,3.6,8.1,8.1,8.1s8.1-3.6,8.1-8.1v-48.4c0-3.2,2.6-5.8,5.8-5.8h0.8
			c3.2,0,5.8,2.6,5.8,5.8v3.7v27.4c0,4.5,3.6,8.1,8.1,8.1s8.1-3.6,8.1-8.1v-25.8c1-1.9,2.9-3,5.1-3h0.8c3.2,0,5.8,2.6,5.8,5.8v1.1
			v22c0,4.5,3.6,8.1,8.1,8.1c4.5,0,8.1-3.6,8.1-8.1v-20.4c1-1.9,2.9-3.2,5.2-3.2h0.8c3.2,0,5.8,2.6,5.8,5.8v5.6v16.2
			c0,4.5,3.6,8.1,8.1,8.1s8.1-3.6,8.1-8.1v-16.2c0-3.2,2.6-5.8,5.8-5.8h0.8c3.2,0,5.8,2.6,5.8,5.8V290c0,0.3,0,0.5,0,0.8
			C144.6,300.4,143.8,328.2,129.2,340.5z"/>
	</g>
</g>
</svg>
