<?xml version="1.0" encoding="utf-8"?>
<!-- Generator: Adobe Illustrator 21.0.2, SVG Export Plug-In . SVG Version: 6.00 Build 0)  -->
<svg version="1.1" id="Capa_1" xmlns="http://www.w3.org/2000/svg" xmlns:xlink="http://www.w3.org/1999/xlink" x="0px" y="0px"
	 viewBox="0 0 512 512" style="enable-background:new 0 0 512 512;" xml:space="preserve">
<style type="text/css">
	.st0{fill:#1EC469;}
</style>
<g>
	<g>
		<g>
			<path class="st0" d="M474.9,298.7c-11.6-17.5-28.6-30.7-48.4-37.6V32c0-17.7-14.3-32-32-32H169.9c-0.9,0.1-1.8,0.2-2.7,0.5h-1.1
				c-1.1,0.5-2.2,1.2-3.1,2.1L24.4,141.3c-0.9,0.9-1.6,1.9-2.1,3.1v1c-0.3,0.9-0.5,1.8-0.5,2.8l-0.5,1.2V480c0,17.7,14.3,32,32,32
				h298.7c2.3,0,4.5-0.7,6.4-2l36.3-27.3l36.3,27.2c1.8,1.4,4.1,2.1,6.4,2.1c5.9,0,10.7-4.8,10.7-10.7v-69.5
				C492,402.5,504.1,342.9,474.9,298.7z M159.8,36.4v70.3c0,17.7-14.3,32-32,32H57.5L159.8,36.4z M341.2,490.7h-288
				c-5.9,0-10.7-4.8-10.7-10.7V160h85.3c29.5,0,53.3-23.9,53.3-53.3V21.3h213.3c5.9,0,10.7,4.8,10.7,10.7v224.6
				c-25.4-2.9-51,4.5-70.8,20.7l-67.8-58.2v-80.4h32V53.3h-85.3v85.3h32V224c0,3.1,1.4,6.1,3.7,8.1l70.9,60.4
				c-4.1,5.2-7.7,10.9-10.7,16.9H127.8v-32h32V192H74.5v85.3h32V320c0,5.9,4.8,10.7,10.7,10.7H301c-1.6,7-2.4,14.2-2.5,21.3
				c0,1.7,0,3.3,0,5l-67.4,48.3h-72.7c-5.9-22.8-29.2-36.5-52-30.6c-22.8,5.9-36.5,29.2-30.6,52c5.9,22.8,29.2,36.5,52,30.6
				c15-3.9,26.8-15.6,30.6-30.6h76.2c2.2,0,4.4-0.7,6.2-2l62.1-44.4c6.5,21.1,20.1,39.3,38.4,51.5L341.2,490.7L341.2,490.7z
				 M234.5,117.3V74.7h42.7v42.7L234.5,117.3L234.5,117.3z M95.8,256v-42.7h42.7V256H95.8z M138.5,416c0,11.8-9.6,21.3-21.3,21.3
				s-21.3-9.6-21.3-21.3s9.6-21.3,21.3-21.3S138.5,404.2,138.5,416z M426.5,480l-25.6-19.2c-3.8-2.8-9-2.8-12.8,0L362.5,480v-37.7
				c20.7,7.5,43.3,7.5,64,0V480z M394.5,426.7c-41.2,0-74.7-33.4-74.7-74.7c0-41.2,33.4-74.7,74.7-74.7s74.7,33.4,74.7,74.7
				C469.2,393.2,435.7,426.7,394.5,426.7z"/>
			<path class="st0" d="M383.8,358.3l-24.4-24.4l-15,15l32,32c4.2,4.1,10.9,4.1,15,0l53.3-53.3l-15-15L383.8,358.3z"/>
			<rect x="351.8" y="53.3" class="st0" width="21.3" height="85.3"/>
		</g>
	</g>
</g>
</svg>
