<?xml version="1.0" encoding="utf-8"?>
<!-- Generator: Adobe Illustrator 21.0.2, SVG Export Plug-In . SVG Version: 6.00 Build 0)  -->
<svg version="1.1" id="Capa_1" xmlns="http://www.w3.org/2000/svg" xmlns:xlink="http://www.w3.org/1999/xlink" x="0px" y="0px"
	 viewBox="0 0 496 496" style="enable-background:new 0 0 496 496;" xml:space="preserve">
<style type="text/css">
	.st0{fill:#1EC469;}
</style>
<g>
	<g>
		<g>
			<path class="st0" d="M248,104c-13.2,0-24,10.8-24,24s10.8,24,24,24s24-10.8,24-24S261.2,104,248,104z M248,136c-4.4,0-8-3.6-8-8
				s3.6-8,8-8s8,3.6,8,8C256,132.4,252.4,136,248,136z"/>
			<path class="st0" d="M248,0c-75,0-136,61-136,136v216h272V136C384,61,323,0,248,0z M128,152h32v-16h-32c0-5.4,0.5-10.8,1.2-16
				H176v48h-48V152z M288,336h-80v-32c0-4.4,3.6-8,8-8h64c4.4,0,8,3.6,8,8V336z M320,336h-16v-32c0-13.2-10.8-24-24-24h-64
				c-13.2,0-24,10.8-24,24v32h-16v-40c0-17.6,14.4-32,32-32h80c17.6,0,32,14.4,32,32V336z M368,336h-32v-40c0-26.5-21.5-48-48-48
				h-80c-26.5,0-48,21.5-48,48v40h-32V184h240V336z M192,168v-56c0-13.2,10.8-24,24-24h64c13.2,0,24,10.8,24,24v56H192z M368,136
				h-32v16h32v16h-48v-48h46.8C367.5,125.2,368,130.6,368,136z M319.2,104c-3.7-18.2-19.9-32-39.2-32h-64c-19.3,0-35.5,13.8-39.2,32
				h-44.3c14.1-50.7,60.5-88,115.5-88s101.5,37.3,115.5,88H319.2z"/>
			<path class="st0" d="M144,368c-17.6,0-32,14.4-32,32v64c0,17.6,14.4,32,32,32s32-14.4,32-32v-64C176,382.4,161.6,368,144,368z
				 M160,464c0,8.8-7.2,16-16,16s-16-7.2-16-16v-8h16v-16h-16v-16h16v-16h-16v-8c0-8.8,7.2-16,16-16s16,7.2,16,16V464z"/>
			<path class="st0" d="M352,368c-17.6,0-32,14.4-32,32v64c0,17.6,14.4,32,32,32s32-14.4,32-32v-64C384,382.4,369.6,368,352,368z
				 M368,408h-16v16h16v16h-16v16h16v8c0,8.8-7.2,16-16,16s-16-7.2-16-16v-64c0-8.8,7.2-16,16-16s16,7.2,16,16V408z"/>
			<path class="st0" d="M288,416h-80v-48h-16v48c0,8.8,7.2,16,16,16h80c8.8,0,16-7.2,16-16v-48h-16V416z"/>
			<path class="st0" d="M56,144c-22.1,0-40,17.9-40,40v32c0,9,3.1,17.3,8.2,24H24v88h24v25.5c-9.3,3.3-16,12.1-16,22.5v16h16v-16
				c0-4.4,3.6-8,8-8s8,3.6,8,8v16h16v-16c0-10.4-6.7-19.2-16-22.5V328h24v-88h-0.2c5.1-6.7,8.2-15,8.2-24v-32
				C96,161.9,78.1,144,56,144z M72,312H40v-59.4c4.9,2.2,10.3,3.4,16,3.4s11.1-1.2,16-3.4V312z M80,216c0,13.2-10.8,24-24,24
				s-24-10.8-24-24v-32c0-13.2,10.8-24,24-24s24,10.8,24,24V216z"/>
			<path class="st0" d="M480,184c0-22.1-17.9-40-40-40s-40,17.9-40,40v32c0,9,3.1,17.3,8.2,24H408v88h24v25.5
				c-9.3,3.3-16,12.1-16,22.5v16h16v-16c0-4.4,3.6-8,8-8s8,3.6,8,8v16h16v-16c0-10.4-6.7-19.2-16-22.5V328h24v-88h-0.2
				c5.1-6.7,8.2-15,8.2-24V184z M456,312h-32v-59.4c4.9,2.2,10.3,3.4,16,3.4s11.1-1.2,16-3.4V312z M464,216c0,13.2-10.8,24-24,24
				s-24-10.8-24-24v-32c0-13.2,10.8-24,24-24s24,10.8,24,24V216z"/>
		</g>
	</g>
</g>
</svg>
